<svg width="10" height="20" viewBox="0 0 10 20" fill="none" xmlns="http://www.w3.org/2000/svg">
<path d="M8.77688 6.80424L2.37803 0.40539C2.11683 0.14574 1.7635 0 1.3952 0C1.0269 0 0.673568 0.14574 0.412368 0.40539C0.281703 0.534988 0.177991 0.689175 0.107215 0.859058C0.0364393 1.02894 0 1.21115 0 1.39519C0 1.57923 0.0364393 1.76144 0.107215 1.93132C0.177991 2.10121 0.281703 2.25539 0.412368 2.38499L6.82516 8.76991C6.95583 8.8995 7.05954 9.05369 7.13032 9.22357C7.20109 9.39345 7.23753 9.57567 7.23753 9.75971C7.23753 9.94374 7.20109 10.126 7.13032 10.2958C7.05954 10.4657 6.95583 10.6199 6.82516 10.7495L0.412368 17.1344C0.149857 17.3951 0.0016449 17.7494 0.000337694 18.1193C-0.000969515 18.4892 0.144736 18.8445 0.405399 19.1071C0.666062 19.3696 1.02033 19.5178 1.39027 19.5191C1.76021 19.5204 2.11552 19.3747 2.37803 19.114L8.77688 12.7152C9.56008 11.931 10 10.868 10 9.75971C10 8.6514 9.56008 7.58842 8.77688 6.80424Z" fill="white"/>
</svg>
