<svg width="10" height="20" viewBox="0 0 10 20" fill="none" xmlns="http://www.w3.org/2000/svg">
<path d="M1.22312 12.7149L7.62197 19.1137C7.88317 19.3734 8.2365 19.5191 8.6048 19.5191C8.9731 19.5191 9.32643 19.3734 9.58763 19.1137C9.7183 18.9841 9.82201 18.8299 9.89278 18.66C9.96356 18.4902 10 18.3079 10 18.1239C10 17.9399 9.96356 17.7577 9.89278 17.5878C9.82201 17.4179 9.7183 17.2637 9.58763 17.1341L3.17484 10.7492C3.04417 10.6196 2.94046 10.4654 2.86968 10.2955C2.79891 10.1256 2.76247 9.94343 2.76247 9.7594C2.76247 9.57536 2.79891 9.39315 2.86968 9.22326C2.94046 9.05338 3.04417 8.8992 3.17484 8.7696L9.58763 2.38468C9.85014 2.12402 9.99836 1.76975 9.99966 1.39981C10.001 1.02987 9.85526 0.674564 9.5946 0.412052C9.33394 0.14954 8.97967 0.00132751 8.60973 2.09808e-05C8.23979 -0.00128746 7.88448 0.144421 7.62197 0.405083L1.22312 6.80394C0.439918 7.58811 0 8.6511 0 9.7594C0 10.8677 0.439918 11.9307 1.22312 12.7149Z" fill="white"/>
</svg>
