<svg width="20" height="20" viewBox="0 0 20 20" fill="none" xmlns="http://www.w3.org/2000/svg">
<path d="M10 5.83333C7.7025 5.83333 5.83333 7.7025 5.83333 10C5.83333 12.2975 7.7025 14.1667 10 14.1667C12.2975 14.1667 14.1667 12.2975 14.1667 10C14.1667 7.7025 12.2975 5.83333 10 5.83333ZM10 12.5C8.62167 12.5 7.5 11.3783 7.5 10C7.5 8.62167 8.62167 7.5 10 7.5C11.3783 7.5 12.5 8.62167 12.5 10C12.5 11.3783 11.3783 12.5 10 12.5ZM19.1667 9.16667H18.2917C17.8992 5.23583 14.7642 2.1 10.8333 1.70833V0.833333C10.8333 0.3725 10.46 0 10 0C9.54 0 9.16667 0.3725 9.16667 0.833333V1.70833C5.23583 2.1 2.1 5.23583 1.70833 9.16667H0.833333C0.373333 9.16667 0 9.53917 0 10C0 10.4608 0.373333 10.8333 0.833333 10.8333H1.70833C2.10083 14.7642 5.23583 17.9 9.16667 18.2917V19.1667C9.16667 19.6275 9.54 20 10 20C10.46 20 10.8333 19.6275 10.8333 19.1667V18.2917C14.7642 17.8992 17.9 14.7642 18.2917 10.8333H19.1667C19.6267 10.8333 20 10.4608 20 10C20 9.53917 19.6267 9.16667 19.1667 9.16667ZM10 16.6667C6.32417 16.6667 3.33333 13.6758 3.33333 10C3.33333 6.32417 6.32417 3.33333 10 3.33333C13.6758 3.33333 16.6667 6.32417 16.6667 10C16.6667 13.6758 13.6758 16.6667 10 16.6667Z" fill="white"/>
</svg>
