<svg width="18" height="20" viewBox="0 0 18 20" fill="none" xmlns="http://www.w3.org/2000/svg">
<path d="M17.5 10C17.5 10.221 17.4122 10.433 17.2559 10.5893C17.0996 10.7455 16.8877 10.8333 16.6667 10.8333H14.275C13.8444 10.8319 13.4214 10.7199 13.0465 10.508C12.6716 10.2962 12.3575 9.99152 12.1342 9.62333L10.9942 7.73083L9.755 10.75C9.71352 10.8513 9.65251 10.9434 9.57543 11.0211C9.49835 11.0988 9.40672 11.1606 9.30578 11.2029C9.20483 11.2451 9.09655 11.2671 8.9871 11.2676C8.87766 11.268 8.7692 11.2469 8.66792 11.2054C8.56663 11.1639 8.47451 11.1029 8.39681 11.0258C8.31911 10.9488 8.25736 10.8571 8.21507 10.7562C8.17278 10.6553 8.15078 10.547 8.15034 10.4375C8.1499 10.3281 8.17102 10.2196 8.2125 10.1183L9.62917 6.66667H8.01333L6.29333 10.86C6.21886 11.0412 6.21062 11.2429 6.27005 11.4296C6.32949 11.6163 6.4528 11.776 6.61833 11.8808L10.445 14.2975C10.5636 14.3724 10.6614 14.4761 10.7293 14.5989C10.7972 14.7217 10.833 14.8597 10.8333 15V19.1667C10.8333 19.3877 10.7455 19.5996 10.5893 19.7559C10.433 19.9122 10.221 20 10 20C9.77899 20 9.56703 19.9122 9.41074 19.7559C9.25446 19.5996 9.16667 19.3877 9.16667 19.1667V15.4592L5.72833 13.2925C5.23058 12.9785 4.85957 12.4989 4.68061 11.9383C4.50165 11.3776 4.52622 10.7718 4.75 10.2275L6.21167 6.66667H4.36333C4.20858 6.6661 4.05676 6.70889 3.92509 6.79019C3.79341 6.87149 3.68715 6.98806 3.61833 7.12667L2.4125 9.53917C2.36358 9.63711 2.29585 9.72446 2.21318 9.79623C2.1305 9.868 2.0345 9.92278 1.93065 9.95745C1.82681 9.99212 1.71715 10.006 1.60794 9.99828C1.49873 9.99057 1.39211 9.96142 1.29417 9.9125C1.19622 9.86358 1.10887 9.79585 1.0371 9.71318C0.965335 9.6305 0.910553 9.5345 0.875885 9.43065C0.841218 9.32681 0.827345 9.21715 0.835057 9.10794C0.842769 8.99873 0.871916 8.89211 0.920833 8.79417L2.1275 6.3775C2.3345 5.96213 2.65362 5.61297 3.04875 5.36953C3.44387 5.1261 3.89924 4.99809 4.36333 5H9.8825C10.3135 5.00128 10.7368 5.11332 11.112 5.32535C11.4872 5.53739 11.8016 5.84231 12.025 6.21083L13.5617 8.76333C13.6361 8.88599 13.7408 8.98748 13.8657 9.0581C13.9906 9.12872 14.1315 9.1661 14.275 9.16667H16.6667C16.8877 9.16667 17.0996 9.25447 17.2559 9.41075C17.4122 9.56703 17.5 9.77899 17.5 10ZM4.89583 14.0117C4.79422 13.971 4.6856 13.9508 4.57616 13.9521C4.46673 13.9534 4.35862 13.9763 4.25803 14.0194C4.15743 14.0625 4.0663 14.125 3.98986 14.2033C3.91342 14.2816 3.85315 14.3742 3.8125 14.4758C3.75125 14.631 3.64457 14.7641 3.50644 14.8576C3.3683 14.9511 3.20515 15.0007 3.03833 15H0.833333C0.61232 15 0.400358 15.0878 0.244078 15.2441C0.0877973 15.4004 0 15.6123 0 15.8333C0 16.0543 0.0877973 16.2663 0.244078 16.4226C0.400358 16.5789 0.61232 16.6667 0.833333 16.6667H3.03833C3.53841 16.6682 4.02737 16.5191 4.44148 16.2388C4.8556 15.9584 5.17567 15.5599 5.36 15.095C5.40066 14.9934 5.42091 14.8848 5.41959 14.7753C5.41827 14.6659 5.3954 14.5578 5.3523 14.4572C5.3092 14.3566 5.2467 14.2655 5.16838 14.189C5.09006 14.1126 4.99745 14.0523 4.89583 14.0117ZM10.8333 4.16667C11.2454 4.16667 11.6482 4.04448 11.9908 3.81556C12.3334 3.58664 12.6004 3.26127 12.7581 2.88059C12.9158 2.49991 12.957 2.08102 12.8766 1.6769C12.7962 1.27277 12.5978 0.901555 12.3065 0.610195C12.0151 0.318836 11.6439 0.120417 11.2398 0.0400316C10.8356 -0.0403543 10.4168 0.000902668 10.0361 0.158585C9.6554 0.316268 9.33002 0.583294 9.1011 0.925896C8.87218 1.2685 8.75 1.67129 8.75 2.08333C8.75 2.63587 8.96949 3.16577 9.36019 3.55647C9.75089 3.94717 10.2808 4.16667 10.8333 4.16667Z" fill="white"/>
</svg>
