<svg width="48" height="49" viewBox="0 0 48 49" fill="none" xmlns="http://www.w3.org/2000/svg">
<path d="M48 24.5C48 38.031 37.2548 49 24 49C10.7452 49 0 38.031 0 24.5C0 10.969 10.7452 0 24 0C37.2548 0 48 10.969 48 24.5Z" fill="#417DBA" fill-opacity="0.15"/>
<path d="M33.9167 22.0521C34.6979 21.7812 35.3958 21.3542 36 20.8125V37H11V18.25C11 16.5312 12.4062 15.125 14.125 15.125H25.6771C25.625 15.4688 25.5833 15.8125 25.5833 16.1667C25.5833 16.5208 25.625 16.8646 25.6771 17.2083H14.125C13.5521 17.2083 13.0833 17.6771 13.0833 18.25V18.5L21.2917 26.7083C22.5104 27.9271 24.4896 27.9271 25.7083 26.7083L30.2188 22.1979C30.7292 22.3333 31.2708 22.4167 31.8333 22.4167C32.2604 22.4167 32.6667 22.375 33.0729 22.2917L27.1875 28.1771C26.1771 29.1875 24.8333 29.6979 23.5 29.6979C22.1667 29.6979 20.8333 29.1875 19.8125 28.1771L13.0833 21.4479V34.9167H33.9167V22.0521ZM27.6667 16.1667C27.6667 13.8646 29.5312 12 31.8333 12C34.1354 12 36 13.8646 36 16.1667C36 18.4688 34.1354 20.3333 31.8333 20.3333C29.5312 20.3333 27.6667 18.4688 27.6667 16.1667ZM29.75 16.1667C29.75 17.3125 30.6875 18.25 31.8333 18.25C32.9792 18.25 33.9167 17.3125 33.9167 16.1667C33.9167 15.0208 32.9792 14.0833 31.8333 14.0833C30.6875 14.0833 29.75 15.0208 29.75 16.1667Z" fill="#417DBA"/>
</svg>
