<svg width="20" height="20" viewBox="0 0 20 20" fill="none" xmlns="http://www.w3.org/2000/svg">
<g clip-path="url(#clip0_201_253)">
<path d="M19.21 9.71167L17.6942 6.3025C17.3013 5.41869 16.6606 4.66779 15.8496 4.14079C15.0386 3.61378 14.0922 3.3333 13.125 3.33334H12L11.45 1.13167C11.3689 0.808546 11.1821 0.521777 10.9195 0.316883C10.6568 0.111989 10.3332 0.000709534 10 0.000709534C9.66685 0.000709534 9.34324 0.111989 9.08055 0.316883C8.81785 0.521777 8.63112 0.808546 8.55 1.13167L8 3.33334H4.16667C3.062 3.33466 2.00296 3.77407 1.22185 4.55519C0.440735 5.3363 0.00132321 6.39534 0 7.5L0 14.1667C0.001788 14.6924 0.169626 15.2042 0.479556 15.6289C0.789487 16.0536 1.22567 16.3696 1.72583 16.5317C1.68811 16.7132 1.66829 16.898 1.66667 17.0833C1.66667 17.8569 1.97396 18.5988 2.52094 19.1457C3.06792 19.6927 3.80979 20 4.58333 20C5.35688 20 6.09875 19.6927 6.64573 19.1457C7.19271 18.5988 7.5 17.8569 7.5 17.0833C7.49869 16.9438 7.48727 16.8046 7.46583 16.6667H12.5342C12.5127 16.8046 12.5013 16.9438 12.5 17.0833C12.5 17.8569 12.8073 18.5988 13.3543 19.1457C13.9013 19.6927 14.6431 20 15.4167 20C16.1902 20 16.9321 19.6927 17.4791 19.1457C18.026 18.5988 18.3333 17.8569 18.3333 17.0833C18.3317 16.898 18.3119 16.7132 18.2742 16.5317C18.7743 16.3696 19.2105 16.0536 19.5204 15.6289C19.8304 15.2042 19.9982 14.6924 20 14.1667V13.435C20.0018 12.1521 19.7326 10.8833 19.21 9.71167ZM16.1717 6.98L17.1442 9.16667H14.1667C13.9457 9.16667 13.7337 9.07887 13.5774 8.92259C13.4211 8.76631 13.3333 8.55435 13.3333 8.33334V5.015C13.9407 5.05225 14.5264 5.25506 15.0267 5.60145C15.527 5.94784 15.923 6.42458 16.1717 6.98ZM5.83333 17.0833C5.83333 17.4149 5.70164 17.7328 5.46722 17.9672C5.2328 18.2016 4.91485 18.3333 4.58333 18.3333C4.25181 18.3333 3.93387 18.2016 3.69945 17.9672C3.46503 17.7328 3.33333 17.4149 3.33333 17.0833C3.33385 16.9409 3.3601 16.7998 3.41083 16.6667H5.75583C5.80657 16.7998 5.83282 16.9409 5.83333 17.0833ZM15.4167 18.3333C15.0851 18.3333 14.7672 18.2016 14.5328 17.9672C14.2984 17.7328 14.1667 17.4149 14.1667 17.0833C14.1672 16.9409 14.1934 16.7998 14.2442 16.6667H16.5892C16.6399 16.7998 16.6662 16.9409 16.6667 17.0833C16.6667 17.4149 16.535 17.7328 16.3005 17.9672C16.0661 18.2016 15.7482 18.3333 15.4167 18.3333ZM18.3333 14.1667C18.3333 14.3877 18.2455 14.5996 18.0893 14.7559C17.933 14.9122 17.721 15 17.5 15H2.5C2.27899 15 2.06702 14.9122 1.91074 14.7559C1.75446 14.5996 1.66667 14.3877 1.66667 14.1667V7.5C1.66667 6.83696 1.93006 6.20108 2.3989 5.73224C2.86774 5.2634 3.50363 5 4.16667 5H11.6667V8.33334C11.6667 8.99638 11.9301 9.63226 12.3989 10.1011C12.8677 10.5699 13.5036 10.8333 14.1667 10.8333H17.8575C18.1704 11.6651 18.3316 12.5463 18.3333 13.435V14.1667ZM9.16667 10C9.16667 10.221 9.07887 10.433 8.92259 10.5893C8.76631 10.7455 8.55435 10.8333 8.33333 10.8333H7.5V11.6667C7.5 11.8877 7.4122 12.0996 7.25592 12.2559C7.09964 12.4122 6.88768 12.5 6.66667 12.5C6.44565 12.5 6.23369 12.4122 6.07741 12.2559C5.92113 12.0996 5.83333 11.8877 5.83333 11.6667V10.8333H5C4.77899 10.8333 4.56702 10.7455 4.41074 10.5893C4.25446 10.433 4.16667 10.221 4.16667 10C4.16667 9.77899 4.25446 9.56703 4.41074 9.41075C4.56702 9.25447 4.77899 9.16667 5 9.16667H5.83333V8.33334C5.83333 8.11232 5.92113 7.90036 6.07741 7.74408C6.23369 7.5878 6.44565 7.5 6.66667 7.5C6.88768 7.5 7.09964 7.5878 7.25592 7.74408C7.4122 7.90036 7.5 8.11232 7.5 8.33334V9.16667H8.33333C8.55435 9.16667 8.76631 9.25447 8.92259 9.41075C9.07887 9.56703 9.16667 9.77899 9.16667 10Z" fill="white"/>
</g>
<defs>
<clipPath id="clip0_201_253">
<rect width="20" height="20" fill="white"/>
</clipPath>
</defs>
</svg>
