<svg width="150" height="150" viewBox="0 0 150 150" fill="none" xmlns="http://www.w3.org/2000/svg">
<g clip-path="url(#clip0_108_779)">
<path d="M50 75C70.6813 75 87.5 58.1813 87.5 37.5C87.5 16.8188 70.6813 0 50 0C29.3188 0 12.5 16.8188 12.5 37.5C12.5 58.1813 29.3188 75 50 75ZM50 12.5C63.7875 12.5 75 23.7125 75 37.5C75 51.2875 63.7875 62.5 50 62.5C36.2125 62.5 25 51.2875 25 37.5C25 23.7125 36.2125 12.5 50 12.5ZM62.4375 95.0688C61.95 98.4875 58.7938 100.894 55.3688 100.381C53.5938 100.125 51.7875 100 50 100C29.3188 100 12.5 116.819 12.5 137.5V143.75C12.5 147.2 9.70625 150 6.25 150C2.79375 150 0 147.2 0 143.75V137.5C0 109.931 22.4313 87.5 50 87.5C52.375 87.5 54.775 87.6688 57.1312 88.0062C60.55 88.4938 62.925 91.6562 62.4438 95.075L62.4375 95.0688ZM125 87.5H100V81.25C100 74.3562 105.606 68.75 112.5 68.75C116.05 68.75 119.444 70.2687 121.825 72.9187C124.125 75.4875 128.075 75.7 130.65 73.4C133.219 71.0938 133.431 67.1437 131.125 64.575C126.381 59.2812 119.594 56.25 112.5 56.25C98.7125 56.25 87.5 67.4625 87.5 81.25V90.8562C80.0312 95.1875 75 103.269 75 112.5V125C75 138.788 86.2125 150 100 150H125C138.788 150 150 138.788 150 125V112.5C150 98.7125 138.788 87.5 125 87.5ZM137.5 125C137.5 131.894 131.894 137.5 125 137.5H100C93.1062 137.5 87.5 131.894 87.5 125V112.5C87.5 105.606 93.1062 100 100 100H125C131.894 100 137.5 105.606 137.5 112.5V125ZM121.875 118.75C121.875 123.925 117.675 128.125 112.5 128.125C107.325 128.125 103.125 123.925 103.125 118.75C103.125 113.575 107.325 109.375 112.5 109.375C117.675 109.375 121.875 113.575 121.875 118.75Z" fill="white"/>
</g>
<defs>
<clipPath id="clip0_108_779">
<rect width="150" height="150" fill="white"/>
</clipPath>
</defs>
</svg>
