<svg width="25" height="25" viewBox="0 0 25 25" fill="none" xmlns="http://www.w3.org/2000/svg">
<g clip-path="url(#clip0_200_198)">
<path d="M12.5 12.5C13.3241 12.5 14.1297 12.2556 14.8149 11.7978C15.5001 11.34 16.0341 10.6892 16.3495 9.92786C16.6649 9.1665 16.7474 8.32872 16.5866 7.52046C16.4258 6.71221 16.029 5.96978 15.4463 5.38706C14.8636 4.80434 14.1211 4.40751 13.3129 4.24673C12.5046 4.08596 11.6668 4.16848 10.9055 4.48384C10.1441 4.79921 9.49338 5.33326 9.03555 6.01846C8.57771 6.70367 8.33333 7.50925 8.33333 8.33334C8.33333 9.43841 8.77232 10.4982 9.55372 11.2796C10.3351 12.061 11.3949 12.5 12.5 12.5ZM12.5 6.25001C12.912 6.25001 13.3148 6.37219 13.6574 6.60111C14 6.83003 14.2671 7.1554 14.4248 7.53608C14.5824 7.91676 14.6237 8.33565 14.5433 8.73978C14.4629 9.14391 14.2645 9.51512 13.9731 9.80648C13.6818 10.0978 13.3106 10.2963 12.9064 10.3766C12.5023 10.457 12.0834 10.4158 11.7027 10.2581C11.3221 10.1004 10.9967 9.83338 10.7678 9.49078C10.5389 9.14818 10.4167 8.74538 10.4167 8.33334C10.4167 7.78081 10.6362 7.2509 11.0269 6.8602C11.4176 6.4695 11.9475 6.25001 12.5 6.25001ZM16.6667 22.9479L25 24.9771V14.0448C24.9998 13.3738 24.7836 12.7208 24.3835 12.1822C23.9833 11.6436 23.4205 11.2481 22.7781 11.0542L20.5906 10.325C20.7506 9.67528 20.8321 9.00872 20.8333 8.33959C20.8333 6.12945 19.9554 4.00984 18.3926 2.44703C16.8298 0.88423 14.7101 0.0062561 12.5 0.0062561C10.2899 0.0062561 8.17025 0.88423 6.60745 2.44703C5.04464 4.00984 4.16667 6.12945 4.16667 8.33959C4.16975 8.76244 4.20457 9.18446 4.27083 9.60209C3.79778 9.4135 3.28572 9.3437 2.77945 9.3988C2.27318 9.45391 1.78812 9.63223 1.36672 9.91817C0.945308 10.2041 0.600389 10.589 0.362131 11.039C0.123874 11.4891 -0.000461678 11.9907 1.28817e-06 12.5V22.6583L8.31563 25.0344L16.6667 22.9479ZM8.08021 3.92084C9.25442 2.76329 10.8385 2.11664 12.4873 2.12176C14.1362 2.12687 15.7162 2.78333 16.8832 3.94814C18.0502 5.11295 18.7096 6.69173 18.7179 8.34056C18.7261 9.98938 18.0824 11.5747 16.9271 12.751L12.5 17.0833L8.08021 12.7594C6.9082 11.5873 6.24977 9.99764 6.24977 8.34011C6.24977 6.68258 6.9082 5.09293 8.08021 3.92084ZM2.08333 12.5C2.08202 12.3282 2.12387 12.1588 2.20504 12.0074C2.28621 11.856 2.40411 11.7274 2.54792 11.6333C2.69835 11.5346 2.87165 11.4762 3.05115 11.4638C3.23066 11.4514 3.41034 11.4854 3.57292 11.5625L5.06667 12.1021C5.46631 12.8935 5.98915 13.6164 6.61563 14.2438L12.5 20L18.3927 14.2365C18.9721 13.6579 19.4635 12.9974 19.851 12.276L22.1604 13.0479C22.3779 13.1101 22.5693 13.2415 22.7055 13.4221C22.8418 13.6027 22.9155 13.8227 22.9156 14.049V22.3292L16.6667 20.8021L8.35417 22.8854L2.08333 21.0896V12.5Z" fill="#383436"/>
</g>
<defs>
<clipPath id="clip0_200_198">
<rect width="25" height="25" fill="white"/>
</clipPath>
</defs>
</svg>
