<svg width="32" height="32" viewBox="0 0 32 32" fill="none" xmlns="http://www.w3.org/2000/svg">
<path d="M16 24V22C16.7729 21.9324 17.4974 21.5946 18.046 21.046C18.5946 20.4974 18.9324 19.7729 19 19H21C20.9354 20.3052 20.3878 21.5397 19.4638 22.4638C18.5397 23.3878 17.3052 23.9354 16 24Z" fill="white"/>
<path d="M16 28C13.6139 27.9974 11.3262 27.0483 9.63896 25.361C7.95171 23.6738 7.00265 21.3861 7 19C7.05457 17.2459 7.56983 15.537 8.494 14.045L15.153 3.437C15.2492 3.30201 15.3762 3.19196 15.5236 3.11603C15.6709 3.0401 15.8343 3.00048 16 3.00048C16.1657 3.00048 16.3291 3.0401 16.4764 3.11603C16.6238 3.19196 16.7508 3.30201 16.847 3.437L23.477 13.993C24.4175 15.4984 24.943 17.2259 25 19C24.9974 21.3861 24.0483 23.6738 22.361 25.361C20.6738 27.0483 18.3861 27.9974 16 28ZM16 5.848L10.218 15.056C9.47398 16.2415 9.054 17.6014 9 19C9 20.8565 9.7375 22.637 11.0503 23.9497C12.363 25.2625 14.1435 26 16 26C17.8565 26 19.637 25.2625 20.9497 23.9497C22.2625 22.637 23 20.8565 23 19C22.943 17.5817 22.5125 16.2035 21.752 15.005L16 5.848Z" fill="white"/>
</svg>
