<svg width="120" height="120" viewBox="0 0 120 120" fill="none" xmlns="http://www.w3.org/2000/svg">
<g clip-path="url(#clip0_108_777)">
<path d="M100.305 64.695C103.235 67.625 103.235 72.375 100.305 75.3C97.375 78.23 92.625 78.23 89.7 75.3C86.77 72.37 86.77 67.62 89.7 64.695C92.63 61.77 97.38 61.765 100.305 64.695ZM111.945 91.94C106.1 97.79 97.975 100.61 89.88 99.865L74.215 115.53C71.42 118.325 67.56 119.925 63.61 119.925H55.04C49.56 119.925 45.08 115.46 45.055 109.975L45.01 100.035C45 98.03 45.775 96.14 47.195 94.715C48.615 93.29 50.5 92.505 52.51 92.505H54.96L54.98 89.945C55.01 85.845 58.375 82.505 62.48 82.505H66.29V80.54C62.74 68.985 66.97 56.72 76.98 49.79C86.005 43.535 98.2 43.36 107.335 49.325C114.43 53.96 118.99 61.37 119.85 69.655C120.715 77.935 117.83 86.065 111.945 91.95V91.94ZM109.905 70.675C109.355 65.325 106.495 60.71 101.87 57.69C96.1 53.92 88.39 54.05 82.675 58C76.14 62.53 73.465 70.62 76.025 78.135C76.205 78.655 76.295 79.2 76.295 79.745V87.495C76.295 90.26 74.06 92.495 71.295 92.495H64.97L64.935 97.535C64.915 100.28 62.68 102.495 59.935 102.495H55.035L55.065 109.92H63.62C64.935 109.92 66.22 109.39 67.155 108.455L84.59 91.02C85.77 89.845 87.465 89.31 89.095 89.655C94.85 90.795 100.75 89.005 104.88 84.87C108.625 81.125 110.45 75.95 109.905 70.675ZM10 30C10 13.455 23.455 0 40 0C56.545 0 70 13.455 70 30C70 46.545 56.545 60 40 60C23.455 60 10 46.545 10 30ZM20 30C20 41.03 28.97 50 40 50C51.03 50 60 41.03 60 30C60 18.97 51.03 10 40 10C28.97 10 20 18.97 20 30ZM49.95 76.065C50.345 73.335 48.445 70.8 45.71 70.405C43.83 70.135 41.905 70 40 70C17.945 70 0 87.945 0 110V115C0 117.765 2.24 120 5 120C7.76 120 10 117.765 10 115V110C10 93.455 23.455 80 40 80C41.435 80 42.875 80.105 44.29 80.31C47.01 80.675 49.56 78.8 49.95 76.065Z" fill="white"/>
</g>
<defs>
<clipPath id="clip0_108_777">
<rect width="120" height="120" fill="white"/>
</clipPath>
</defs>
</svg>
