<svg width="120" height="120" viewBox="0 0 120 120" fill="none" xmlns="http://www.w3.org/2000/svg">
<g clip-path="url(#clip0_109_781)">
<path d="M45 60C61.545 60 75 46.545 75 30C75 13.455 61.545 0 45 0C28.455 0 15 13.455 15 30C15 46.545 28.455 60 45 60ZM45 10C56.03 10 65 18.97 65 30C65 41.03 56.03 50 45 50C33.97 50 25 41.03 25 30C25 18.97 33.97 10 45 10ZM53.75 81.1C50.91 80.37 47.965 80 45 80C25.7 80 10 95.7 10 115C10 117.76 7.76 120 5 120C2.24 120 0 117.76 0 115C0 90.19 20.19 70 45 70C48.81 70 52.595 70.475 56.25 71.42C58.925 72.11 60.53 74.835 59.845 77.51C59.16 80.185 56.445 81.79 53.755 81.105L53.75 81.1ZM115.605 59.395C109.935 53.725 100.055 53.725 94.39 59.395L60.855 92.93C57.08 96.705 54.995 101.73 54.995 107.075V115.005C54.995 117.765 57.235 120.005 59.995 120.005H67.925C73.27 120.005 78.29 117.92 82.065 114.145L115.6 80.61C118.435 77.775 119.995 74.01 119.995 70C119.995 65.99 118.435 62.225 115.605 59.395ZM108.53 73.535L74.99 107.07C73.105 108.96 70.595 110 67.92 110H64.99V107.07C64.99 104.4 66.03 101.89 67.92 100L101.46 66.465C103.345 64.575 106.64 64.575 108.53 66.465C109.475 67.405 109.995 68.66 109.995 70C109.995 71.34 109.475 72.59 108.53 73.535Z" fill="white"/>
</g>
<defs>
<clipPath id="clip0_109_781">
<rect width="120" height="120" fill="white"/>
</clipPath>
</defs>
</svg>
