<svg width="25" height="25" viewBox="0 0 25 25" fill="none" xmlns="http://www.w3.org/2000/svg">
<g clip-path="url(#clip0_94_115)">
<path d="M12.5 12.4999C13.7361 12.4999 14.9445 12.1334 15.9723 11.4466C17.0001 10.7599 17.8012 9.78375 18.2742 8.64171C18.7473 7.49967 18.8711 6.24301 18.6299 5.03063C18.3888 3.81825 17.7935 2.7046 16.9194 1.83052C16.0453 0.956446 14.9317 0.361191 13.7193 0.120034C12.5069 -0.121124 11.2503 0.002647 10.1082 0.475695C8.96619 0.948742 7.99007 1.74982 7.30331 2.77763C6.61656 3.80543 6.25 5.01381 6.25 6.24994C6.25165 7.90704 6.91067 9.49579 8.08241 10.6675C9.25415 11.8393 10.8429 12.4983 12.5 12.4999ZM12.5 2.08327C13.3241 2.08327 14.1297 2.32765 14.8149 2.78549C15.5001 3.24332 16.0341 3.89407 16.3495 4.65543C16.6649 5.41679 16.7474 6.25456 16.5866 7.06282C16.4258 7.87107 16.029 8.6135 15.4463 9.19622C14.8636 9.77894 14.1211 10.1758 13.3129 10.3365C12.5046 10.4973 11.6668 10.4148 10.9055 10.0994C10.1441 9.78407 9.49338 9.25002 9.03554 8.56482C8.5777 7.87961 8.33333 7.07403 8.33333 6.24994C8.33333 5.14487 8.77232 4.08506 9.55372 3.30366C10.3351 2.52226 11.3949 2.08327 12.5 2.08327Z" fill="white"/>
<path d="M12.5 14.5833C10.0144 14.5861 7.63147 15.5747 5.87392 17.3322C4.11636 19.0898 3.12776 21.4728 3.125 23.9583C3.125 24.2346 3.23475 24.4995 3.4301 24.6949C3.62545 24.8903 3.8904 25 4.16667 25C4.44293 25 4.70789 24.8903 4.90324 24.6949C5.09859 24.4995 5.20833 24.2346 5.20833 23.9583C5.20833 22.0245 5.97656 20.1698 7.34401 18.8023C8.71147 17.4349 10.5661 16.6667 12.5 16.6667C14.4339 16.6667 16.2885 17.4349 17.656 18.8023C19.0234 20.1698 19.7917 22.0245 19.7917 23.9583C19.7917 24.2346 19.9014 24.4995 20.0968 24.6949C20.2921 24.8903 20.5571 25 20.8333 25C21.1096 25 21.3746 24.8903 21.5699 24.6949C21.7653 24.4995 21.875 24.2346 21.875 23.9583C21.8722 21.4728 20.8836 19.0898 19.1261 17.3322C17.3685 15.5747 14.9856 14.5861 12.5 14.5833Z" fill="white"/>
</g>
<defs>
<clipPath id="clip0_94_115">
<rect width="25" height="25" fill="white"/>
</clipPath>
</defs>
</svg>
