<svg width="48" height="49" viewBox="0 0 48 49" fill="none" xmlns="http://www.w3.org/2000/svg">
<path d="M23.5 12C21.0277 12 18.611 12.7331 16.5554 14.1066C14.4998 15.4801 12.8976 17.4324 11.9515 19.7165C11.0054 22.0005 10.7579 24.5139 11.2402 26.9386C11.7225 29.3634 12.913 31.5907 14.6612 33.3388C16.4093 35.087 18.6366 36.2775 21.0614 36.7598C23.4861 37.2421 25.9995 36.9946 28.2835 36.0485C30.5676 35.1024 32.5199 33.5002 33.8934 31.4446C35.2669 29.389 36 26.9723 36 24.5C35.9964 21.1859 34.6783 18.0086 32.3349 15.6651C29.9915 13.3217 26.8141 12.0036 23.5 12ZM23.5 34.9167C21.4398 34.9167 19.4258 34.3057 17.7128 33.1611C15.9998 32.0165 14.6647 30.3897 13.8763 28.4863C13.0878 26.5829 12.8816 24.4884 13.2835 22.4678C13.6854 20.4472 14.6775 18.5911 16.1343 17.1343C17.5911 15.6775 19.4472 14.6854 21.4678 14.2835C23.4885 13.8816 25.5829 14.0878 27.4863 14.8763C29.3897 15.6647 31.0165 16.9998 32.1611 18.7128C33.3057 20.4258 33.9167 22.4398 33.9167 24.5C33.9136 27.2617 32.8152 29.9095 30.8624 31.8623C28.9095 33.8152 26.2617 34.9136 23.5 34.9167Z" fill="#F9CE07"/>
<path d="M23.5 17.2083C23.2238 17.2083 22.9588 17.3181 22.7635 17.5134C22.5681 17.7088 22.4584 17.9737 22.4584 18.25V26.5833C22.4584 26.8596 22.5681 27.1246 22.7635 27.3199C22.9588 27.5153 23.2238 27.625 23.5 27.625C23.7763 27.625 24.0413 27.5153 24.2366 27.3199C24.432 27.1246 24.5417 26.8596 24.5417 26.5833V18.25C24.5417 17.9737 24.432 17.7088 24.2366 17.5134C24.0413 17.3181 23.7763 17.2083 23.5 17.2083Z" fill="#F9CE07"/>
<path d="M24.5417 30.75C24.5417 30.1747 24.0753 29.7083 23.5 29.7083C22.9247 29.7083 22.4584 30.1747 22.4584 30.75C22.4584 31.3253 22.9247 31.7917 23.5 31.7917C24.0753 31.7917 24.5417 31.3253 24.5417 30.75Z" fill="#F9CE07"/>
<path d="M48 24.5C48 38.031 37.2548 49 24 49C10.7452 49 0 38.031 0 24.5C0 10.969 10.7452 0 24 0C37.2548 0 48 10.969 48 24.5Z" fill="#F9CE07" fill-opacity="0.15"/>
</svg>
