<svg width="32" height="32" viewBox="0 0 32 32" fill="none" xmlns="http://www.w3.org/2000/svg">
<path d="M16 3C12.773 3 9.957 5.258 9.203 8.344C8.586 8.58457 8.02247 8.94438 7.5446 9.40285C7.06673 9.86133 6.68391 10.4095 6.418 11.016C2.922 10.758 0 13.555 0 17C0 20.309 2.691 23 6 23V21C3.793 21 2 19.207 2 17C2 14.793 3.793 13 6 13C6.277 13 6.566 13.035 6.883 13.105L7.859 13.328L8.079 12.348C8.20277 11.802 8.47685 11.3016 8.87023 10.9032C9.26361 10.5049 9.76061 10.2246 10.305 10.094L10.965 9.938L11.063 9.266C11.418 6.832 13.543 5 16 5C16.9255 4.99866 17.8331 5.25527 18.6209 5.74102C19.4087 6.22677 20.0456 6.92246 20.46 7.75L20.855 8.531L21.684 8.242C22.152 8.082 22.582 8 23 8C25.207 8 27 9.793 27 12C27 12.04 26.992 12.074 26.984 12.11L26.964 12.316L26.902 13.036L27.566 13.32C28.2886 13.626 28.905 14.1384 29.3379 14.793C29.7709 15.4475 30.0012 16.2152 30 17C30 19.207 28.207 21 26 21H23.457C23.719 21.2893 23.9493 21.602 24.148 21.938C24.3487 22.2733 24.5153 22.6273 24.648 23H26C29.309 23 32 20.312 32 17C32.0003 15.9457 31.7227 14.91 31.1954 13.9971C30.668 13.0842 29.9094 12.3264 28.996 11.8C28.9416 10.2451 28.2864 8.77196 27.1682 7.69026C26.0499 6.60857 24.5558 6.00267 23 6C22.61 6 22.223 6.043 21.828 6.125C21.1913 5.16228 20.3254 4.37276 19.3082 3.82732C18.291 3.28188 17.1542 2.9976 16 3ZM15.5 12C14.363 12 13.34 12.55 12.703 13.398L14.301 14.598C14.4403 14.4116 14.6213 14.2605 14.8295 14.1566C15.0377 14.0528 15.2673 13.9991 15.5 14C16.34 14 17 14.66 17 15.5C17 16.34 16.34 17 15.5 17H9V19H15.5C17.422 19 19 17.422 19 15.5C19 13.578 17.422 12 15.5 12ZM8 21V23H11C11.566 23 12 23.434 12 24C12 24.566 11.566 25 11 25C10.8246 25.0015 10.6519 24.9559 10.5001 24.868C10.3483 24.78 10.2229 24.653 10.137 24.5L8.407 25.512C8.67291 25.9637 9.05181 26.3385 9.50646 26.5994C9.9611 26.8603 10.4758 26.9983 11 27C12.645 27 14 25.645 14 24C13.9947 23.6584 13.9312 23.3202 13.812 23H19C20.117 23 21 23.883 21 25C21 26.117 20.117 27 19 27C18.5859 27.0001 18.1819 26.8716 17.8439 26.6323C17.5059 26.393 17.2505 26.0547 17.113 25.664L15.227 26.328C15.5019 27.1091 16.0125 27.7857 16.6884 28.2643C17.3642 28.7429 18.1719 29 19 29C21.2 29 23 27.2 23 25C23 22.8 21.2 21 19 21H8Z" fill="white"/>
</svg>
